# xmcd CD database file
#
# Track frame offsets:
#	182
#	110272
#	145152
#	204217
#	228835
#
# Disc length: 3534 seconds
#
# Revision: 0
# Processed by: cddbd v1.5.1PL0 Copyright (c) Steve Scherf et al.
# Submitted via: CDex 1.51
#
DISCID=360dcc05
DTITLE=Carlos Ward feat. Woody Shaw - Lito
DYEAR=1988
DGENRE=Jazz
TTITLE0=Lito (I,II,III)
TTITLE1=Pettiford Bridge
TTITLE2=Lee
TTITLE3=First Love
TTITLE4=Sundance
EXTD=YEAR: 1988
EXTT0=
EXTT1=
EXTT2=
EXTT3=
EXTT4=
PLAYORDER=
